# xmcd
#
# Track frame offsets: 
#        150
#        23798
#        41637
#        61845
#        77581
#        98372
#        111676
#        129333
#        146092
#
# Disc length: 2187 seconds
#
# Revision: 0
# Processed by: cddbd v1.5.2PL0 Copyright (c) Steve Scherf et al.
# Submitted via: ExactAudioCopy v1.2
#
DISCID=71088909
DTITLE=Boo Boo Weavils - Mud and Honey
DYEAR=2017
DGENRE=Blues
TTITLE0=Deadlines
TTITLE1=Three Wishes
TTITLE2=Colder Than You
TTITLE3=Lion
TTITLE4=Voodoo Woman
TTITLE5=Nutbush City Limits
TTITLE6=It Ain't Me, Babe
TTITLE7=If You Go
TTITLE8=Getting Colder
EXTD=
EXTT0=
EXTT1=
EXTT2=
EXTT3=
EXTT4=
EXTT5=
EXTT6=
EXTT7=
EXTT8=
PLAYORDER=
